<svg id="svg-source" height="0" version="1.1"
  xmlns="http://www.w3.org/2000/svg"
  xmlns:xlink="http://www.w3.org/1999/xlink">

<symbol viewBox="0 0 32 32" id="add">
  <path d="M16,32C7.164,32,0,24.836,0,16S7.164,0,16,0s16,7.164,16,16S24.836,32,16,32z M16,4
  C9.374,4,4,9.374,4,16s5.374,12,12,12s12-5.374,12-12S22.626,4,16,4z M22,18h-4v4c0,1.106-0.894,2-2,2c-1.104,0-2-0.894-2-2v-4h-4
  c-1.104,0-2-0.894-2-2c0-1.104,0.896-2,2-2h4v-4c0-1.104,0.896-2,2-2c1.106,0,2,0.896,2,2v4h4c1.106,0,2,0.896,2,2
  C24,17.106,23.106,18,22,18z"></path>
</symbol>

<!-- https://icomoon.io blocked -->
<symbol viewBox="0 0 1024 1024" id="blocked">
    <path d="M0 512c0 282.77 229.23 512 512 512 282.772 0 512-229.23 512-512s-229.228-512-512-512c-282.77 0-512 229.23-512 512zM896 512c0 73.236-20.512 141.68-56.088 199.912l-527.822-527.824c58.23-35.578 126.674-56.088 199.91-56.088 212.076 0 384 171.922 384 384zM128 512c0-73.236 20.512-141.678 56.090-199.912l527.822 527.824c-58.234 35.578-126.676 56.088-199.912 56.088-212.076 0-384-171.922-384-384z"></path>
</symbol>

<symbol viewBox="0 0 32 32" id="branch">
  <path d="M20,20h-8c-0.566,0-1.072,0.239-1.436,0.618C12.588,21.58,14,23.612,14,26c0,3.313-2.686,6-6,6 s-6-2.687-6-6c0-2.61,1.674-4.806,4-5.634v-8.734C3.674,10.806,2,8.61,2,6c0-3.314,2.686-6,6-6s6,2.686,6,6 c0,2.61-1.674,4.806-4,5.632v4.735C10.628,16.144,11.294,16,12,16h8c1.106,0,2-0.894,2-2v-0.368C19.676,12.806,18,10.61,18,8 c0-3.314,2.688-6,6-6s6,2.686,6,6c0,2.61-1.676,4.806-4,5.632V14C26,17.313,23.312,20,20,20z M24,6c1.106,0,2,0.894,2,2 s-0.894,2-2,2s-2-0.894-2-2S22.894,6,24,6z M8,4c1.104,0,2,0.894,2,2S9.104,8,8,8S6,7.106,6,6S6.896,4,8,4z M8,24 c1.104,0,2,0.894,2,2s-0.896,2-2,2s-2-0.894-2-2S6.896,24,8,24z"></path>
</symbol>

<symbol viewBox="0 0 32 32" id="browser-2" data-iconmelon="Batch:f8384b140d26d5310452d8a718ce91ee">
  <path d="M26,32H6c-3.313,0-6-2.687-6-6V6c0-3.313,2.687-6,6-6h20c3.312,0,6,2.687,6,6v20
  C32,29.313,29.312,32,26,32z M6,2C4.896,2,4,2.896,4,4s0.896,2,2,2s2-0.896,2-2S7.104,2,6,2z M28,8H4v18c0,1.106,0.896,2,2,2h20
  c1.106,0,2-0.894,2-2V8z"></path>
</symbol>

<symbol viewBox="0 0 32 32" id="caret-left">
  <path d="M11.429 8v16q0 0.464-0.339 0.804t-0.804 0.339-0.804-0.339l-8-8q-0.339-0.339-0.339-0.804t0.339-0.804l8-8q0.339-0.339 0.804-0.339t0.804 0.339 0.339 0.804z"></path>
</symbol>

<symbol viewBox="0 0 32 32" id="caret-right">
  <path d="M10.286 16q0 0.464-0.339 0.804l-8 8q-0.339 0.339-0.804 0.339t-0.804-0.339-0.339-0.804v-16q0-0.464 0.339-0.804t0.804-0.339 0.804 0.339l8 8q0.339 0.339 0.339 0.804z"></path>
</symbol>

<symbol viewBox="0 0 32 32" id="chevron-up">
  <path d="M28.768 21.714q0 0.946-0.661 1.607l-1.339 1.339q-0.679 0.679-1.625 0.679-0.964 0-1.607-0.679l-8.679-8.661-8.679 8.661q-0.643 0.679-1.607 0.679t-1.607-0.679l-1.339-1.339q-0.679-0.643-0.679-1.607 0-0.946 0.679-1.625l11.625-11.625q0.661-0.661 1.607-0.661 0.929 0 1.625 0.661l11.607 11.625q0.679 0.679 0.679 1.625z"></path>
</symbol>

<symbol viewBox="0 0 32 32" id="chevron-down">
  <path d="M28.768 12.571q0 0.946-0.661 1.607l-11.625 11.625q-0.679 0.679-1.625 0.679-0.964 0-1.607-0.679l-11.625-11.625q-0.679-0.643-0.679-1.607 0-0.946 0.679-1.625l1.321-1.339q0.696-0.661 1.625-0.661 0.946 0 1.607 0.661l8.679 8.679 8.679-8.679q0.661-0.661 1.607-0.661 0.929 0 1.625 0.661l1.339 1.339q0.661 0.696 0.661 1.625z"></path>
</symbol>

<symbol viewBox="0 0 32 32" id="clock" data-iconmelon="Batch:554ad92c1c498162349c2f3511ad5615">
  <path d="M16,0C7.164,0,0,7.164,0,16s7.164,16,16,16s16-7.164,16-16S24.836,0,16,0z M16,28
  C9.374,28,4,22.626,4,16S9.374,4,16,4s12,5.374,12,12S22.626,28,16,28z M22,14h-4v-4c0-1.106-0.896-2-2-2s-2,0.894-2,2v6
  c0,1.106,0.896,2,2,2h6c1.106,0,2-0.894,2-2S23.106,14,22,14z"></path>
</symbol>

<symbol viewBox="0 0 32 32" id="code">
  <path d="M26,32H6c-3.313,0-6-2.688-6-6V6c0-3.313,2.687-6,6-6h20c3.312,0,6,2.687,6,6v20
  C32,29.312,29.312,32,26,32z M28,6c0-1.104-0.894-2-2-2H6C4.896,4,4,4.896,4,6v20c0,1.106,0.896,2,2,2h20c1.106,0,2-0.894,2-2V6z
   M24,18v2c0,3.312-2.688,6-6,6v-4c1.106,0,2-0.894,2-2v-2c1.106,0,2-0.896,2-2s-0.894-2-2-2v-2c0-1.104-0.894-2-2-2V6
  c3.312,0,6,2.687,6,6v2c1.106,0,2,0.896,2,2S25.106,18,24,18z M8,20v-2c-1.104,0-2-0.896-2-2s0.896-2,2-2v-2c0-3.313,2.687-6,6-6v4
  c-1.104,0-2,0.896-2,2v2c-1.104,0-2,0.896-2,2s0.896,2,2,2v2c0,1.106,0.896,2,2,2v4C10.687,26,8,23.312,8,20z"></path>
</symbol>

<symbol viewBox="0 0 32 32" id="commit">
  <path d="M30,18h-8.368c-0.826,2.326-3.021,4-5.632,4c-2.608,0-4.806-1.674-5.632-4H2
  c-1.104,0-2-0.894-2-2s0.896-2,2-2h8.368c0.826-2.324,3.023-4,5.632-4c2.61,0,4.806,1.676,5.632,4H30c1.106,0,2,0.894,2,2
  S31.106,18,30,18z M16,14c-1.104,0-2,0.894-2,2s0.896,2,2,2c1.106,0,2-0.894,2-2S17.106,14,16,14z"></path>
</symbol>

<symbol viewBox="0 0 32 32" id="compose-3">
  <path d="M24,0L10,14L6,26l12-4L32,8L24,0z M10,22l2-6l4,4L10,22z M18,18l-4-4l6-6l4,4L18,18z
   M28,17.656l4-4V26c0,3.313-2.687,6-6,6H6c-3.314,0-6-2.687-6-6V6c0-3.314,2.686-6,6-6h12.344l-4,4H6C4.895,4,4,4.894,4,6v20
  c0,1.106,0.895,2,2,2h20c1.106,0,2-0.894,2-2V17.656z"></path>
</symbol>

<symbol viewBox="0 0 32 32" id="cross">
  <path d="M26,32H6c-3.314,0-6-2.687-6-6V6c0-3.314,2.686-6,6-6h20c3.312,0,6,2.686,6,6v20
  C32,29.313,29.312,32,26,32z M28,6c0-1.106-0.894-2-2-2H6C4.896,4,4,4.894,4,6v20c0,1.106,0.896,2,2,2h20c1.106,0,2-0.894,2-2V6z
   M21.656,21.656c-0.782,0.782-2.046,0.782-2.828,0L16,18.828l-2.828,2.828c-0.781,0.782-2.048,0.782-2.83,0
  c-0.779-0.782-0.779-2.046,0-2.828L13.172,16l-2.83-2.828c-0.779-0.782-0.779-2.046,0-2.828c0.782-0.782,2.049-0.782,2.83,0
  L16,13.172l2.828-2.828c0.782-0.782,2.046-0.782,2.828,0c0.782,0.782,0.782,2.046,0,2.828L18.828,16l2.828,2.828
  C22.438,19.61,22.438,20.876,21.656,21.656z"></path>
</symbol>

<!-- https://icomoon.io 272-cross -->
<symbol viewBox="0 0 16 16" id="cross-2">
    <path d="M15.854 12.854c-0-0-0-0-0-0l-4.854-4.854 4.854-4.854c0-0 0-0 0-0 0.052-0.052 0.090-0.113 0.114-0.178 0.066-0.178 0.028-0.386-0.114-0.529l-2.293-2.293c-0.143-0.143-0.351-0.181-0.529-0.114-0.065 0.024-0.126 0.062-0.178 0.114 0 0-0 0-0 0l-4.854 4.854-4.854-4.854c-0-0-0-0-0-0-0.052-0.052-0.113-0.090-0.178-0.114-0.178-0.066-0.386-0.029-0.529 0.114l-2.293 2.293c-0.143 0.143-0.181 0.351-0.114 0.529 0.024 0.065 0.062 0.126 0.114 0.178 0 0 0 0 0 0l4.854 4.854-4.854 4.854c-0 0-0 0-0 0-0.052 0.052-0.090 0.113-0.114 0.178-0.066 0.178-0.029 0.386 0.114 0.529l2.293 2.293c0.143 0.143 0.351 0.181 0.529 0.114 0.065-0.024 0.126-0.062 0.178-0.114 0-0 0-0 0-0l4.854-4.854 4.854 4.854c0 0 0 0 0 0 0.052 0.052 0.113 0.090 0.178 0.114 0.178 0.066 0.386 0.029 0.529-0.114l2.293-2.293c0.143-0.143 0.181-0.351 0.114-0.529-0.024-0.065-0.062-0.126-0.114-0.178z"></path>
</symbol>

<symbol viewBox="-3 0 32 32" id="dashboard">
  <path d="M13 14.516c-1.924 0-3.484 1.561-3.484 3.484s1.561 3.484 3.484 3.484 3.484-1.561 3.484-3.484c0-0.266-0.035-0.523-0.094-0.771 2.551-2.967 6.5-7.593 8.609-10.229 0.723-0.902-0.072-1.756-1-1-2.662 2.168-7.26 6.084-10.216 8.612-0.252-0.059-0.515-0.097-0.784-0.097zM13.996 7.996c0-0.552-0.448-1-1-1s-1 0.448-1 1 0.448 1 1 1 1-0.448 1-1zM19.996 15.996c0 0.552 0.449 1 1 1s1-0.448 1-1-0.449-1-1-1-1 0.448-1 1zM8.996 7.996c-0.552 0-1 0.448-1 1s0.448 1 1 1 1-0.448 1-1-0.448-1-1-1zM6.996 11.996c0-0.552-0.448-1-1-1s-1 0.448-1 1 0.448 1 1 1 1-0.448 1-1zM3.996 15.996c0 0.552 0.448 1 1 1s1-0.448 1-1-0.448-1-1-1-1 0.448-1 1zM17.996 8.996c0-0.552-0.449-1-1-1s-1 0.448-1 1 0.449 1 1 1 1-0.448 1-1zM24.777 10.521l-2.148 2.811c0.234 0.85 0.371 1.742 0.371 2.668 0 5.523-4.479 10-10 10s-10-4.477-10-10c0-5.521 4.479-10 10-10 2.059 0 3.969 0.624 5.559 1.69l2.477-1.895c-2.211-1.746-4.996-2.796-8.035-2.796-7.18 0-13 5.82-13 13s5.82 13 13 13 13-5.82 13-13c0-1.96-0.445-3.813-1.223-5.479z"></path>
</symbol>

<symbol viewBox="0 0 32 32" id="folder-2" data-iconmelon="Batch:7bc80d34a9914d513c6aa3d71f8e487f">
  <path id="folder-2" d="M26,32H6c-3.314,0-6-2.687-6-6V6c0-3.314,2.686-6,6-6h8c2.608,0,4.804,1.676,5.632,4H26
  c3.312,0,6,2.686,6,6v16C32,29.313,29.312,32,26,32z M26,8H16V6c0-1.106-0.896-2-2-2H6C4.896,4,4,4.894,4,6v20c0,1.106,0.896,2,2,2
  h2V14c0-1.106,0.896-2,2-2h18v-2C28,8.894,27.106,8,26,8z"></path>
</symbol>

<symbol viewBox="0 0 32 32" id="github">
  <path d="M16 0c-8.837 0-16 7.163-16 16s7.163 16 16 16 16-7.163 16-16-7.163-16-16-16zM25.502 25.502c-1.235 1.235-2.672 2.204-4.272 2.881-0.406 0.172-0.819 0.323-1.238 0.453v-2.398c0-1.26-0.432-2.188-1.297-2.781 0.542-0.052 1.039-0.125 1.492-0.219s0.932-0.229 1.438-0.406 0.958-0.388 1.359-0.633 0.786-0.563 1.156-0.953 0.68-0.833 0.93-1.328 0.448-1.089 0.594-1.781 0.219-1.456 0.219-2.289c0-1.615-0.526-2.99-1.578-4.125 0.479-1.25 0.427-2.609-0.156-4.078l-0.391-0.047c-0.271-0.031-0.758 0.083-1.461 0.344s-1.492 0.688-2.367 1.281c-1.24-0.344-2.526-0.516-3.859-0.516-1.344 0-2.625 0.172-3.844 0.516-0.552-0.375-1.075-0.685-1.57-0.93-0.495-0.245-0.891-0.411-1.188-0.5s-0.573-0.143-0.828-0.164-0.419-0.026-0.492-0.016-0.125 0.021-0.156 0.031c-0.583 1.479-0.635 2.839-0.156 4.078-1.052 1.135-1.578 2.51-1.578 4.125 0 0.833 0.073 1.596 0.219 2.289s0.344 1.286 0.594 1.781 0.56 0.938 0.93 1.328 0.755 0.708 1.156 0.953 0.854 0.456 1.359 0.633 0.984 0.313 1.438 0.406 0.95 0.167 1.492 0.219c-0.854 0.583-1.281 1.51-1.281 2.781v2.445c-0.472-0.14-0.937-0.306-1.394-0.5-1.6-0.677-3.037-1.646-4.272-2.881-1.235-1.235-2.204-2.672-2.881-4.272-0.7-1.655-1.055-3.414-1.055-5.23s0.355-3.575 1.055-5.23c0.677-1.6 1.646-3.037 2.881-4.272s2.672-2.204 4.272-2.881c1.655-0.7 3.415-1.055 5.23-1.055s3.575 0.355 5.23 1.055c1.6 0.677 3.037 1.646 4.272 2.881 1.235 1.235 2.204 2.672 2.881 4.272 0.7 1.655 1.055 3.415 1.055 5.23s-0.355 3.575-1.055 5.23c-0.677 1.6-1.646 3.037-2.881 4.272z"></path>
</symbol>

<symbol viewBox="0 0 32 32" id="in">
  <path d="M26,32H6c-3.314,0-6-2.687-6-6v-4h4v4c0,1.106,0.896,2,2,2h20c1.106,0,2-0.894,2-2V6
  c0-1.104-0.894-2-2-2H6C4.896,4,4,4.896,4,6v4H0V6c0-3.314,2.686-6,6-6h20c3.313,0,6,2.686,6,6v20C32,29.313,29.313,32,26,32z
   M9.234,10.15c0.748-0.308,1.607-0.138,2.18,0.434l4,4C15.805,14.974,16,15.486,16,15.998s-0.195,1.024-0.586,1.414l-4,4
  c-0.572,0.569-1.432,0.741-2.18,0.435C8.488,21.538,8,20.806,8,19.998V18H2c-1.104,0-2-0.894-2-2c0-1.104,0.896-2,2-2h6v-2.002
  C8,11.19,8.488,10.458,9.234,10.15z"></path>
</symbol>

<symbol viewBox="0 0 1024 1024" id="info">
    <path d="M512 0c-282.77 0-512 229.23-512 512s229.23 512 512 512 512-229.23 512-512-229.23-512-512-512zM512 928c-229.75 0-416-186.25-416-416s186.25-416 416-416 416 186.25 416 416-186.25 416-416 416zM448 256h128v128h-128zM640 768h-256v-64h64v-192h-64v-64h192v256h64z"></path>
</symbol>

<symbol viewBox="0 0 32 32" id="key" data-iconmelon="Batch:fb93db67719ee8ad4ac7bea181523d85">
  <path d="M28,32h-2v-4h-4v-4h-4v-2h-4v-2v-0.844C12.773,19.694,11.424,20,10,20C4.479,20,0,15.524,0,10
  S4.479,0,10,0s10,4.476,10,10c0,1.424-0.308,2.774-0.844,4H22v4l10,8v6H28z M8,4C5.792,4,4,5.792,4,8s1.792,4,4,4s4-1.792,4-4
  S10.208,4,8,4z"></path>
</symbol>

<symbol viewBox="-1 0 32 32" id="leaf">
  <path d="M8.512 6.566c-6.115 3.549-5.763 9.328-5.552 11.466 7.899-9.355 19.714-8.901 19.714-8.901s-16.749 5.742-21.669 17.262c-0.387 0.912 1.824 2.094 2.328 1.019 1.506-3.203 3.605-5.606 3.605-5.606 3.098 1.154 8.453 2.502 12.251-0.168 5.042-3.55 4.526-11.418 11.726-15.248 1.682-0.896-14.112-4.635-22.403 0.176z"></path>
</symbol>

<symbol viewBox="0 0 32 32" id="list">
  <path d="M8,12h4V8H8V12z M8,18h4v-4H8V18z M8,24h4v-4H8V24z M14,12h10V8H14V12z M26,0H6
  C2.686,0,0,2.686,0,6v20c0,3.312,2.686,6,6,6h20c3.313,0,6-2.688,6-6V6C32,2.686,29.313,0,26,0z M28,26c0,1.106-0.894,2-2,2H6
  c-1.105,0-2-0.894-2-2V6c0-1.104,0.895-2,2-2h20c1.106,0,2,0.896,2,2V26z M14,18h10v-4H14V18z M14,24h10v-4H14V24z"></path>
</symbol>

<symbol viewBox="0 0 32 32" id="locked">
  <path d="M26,32H6c-1.104,0-2-0.894-2-2V16c0-1.104,0.896-2,2-2v-4C6,4.476,10.479,0,16,0
  c5.524,0,10,4.476,10,10v4c1.106,0,2,0.896,2,2v14C28,31.106,27.106,32,26,32z M22,10c0-3.314-2.688-6-6-6c-3.314,0-6,2.686-6,6v4
  h12V10z M24,18H8v10h16V18z"></path>
</symbol>

<symbol viewBox="0 0 32 32" id="nope">
  <path d="M16,32C7.164,32,0,24.836,0,16S7.164,0,16,0s16,7.164,16,16S24.836,32,16,32z M16,28
  c2.59,0,4.974-0.84,6.937-2.235L6.236,9.064C4.84,11.026,4,13.41,4,16C4,22.626,9.374,28,16,28z M16,4
  c-2.59,0-4.975,0.84-6.936,2.236l16.7,16.701C27.16,20.974,28,18.593,28,16C28,9.374,22.626,4,16,4z"></path>
</symbol>

<symbol viewBox="0 0 32 32" id="outgoing">
  <path d="M26,32H6c-3.312,0-6-2.687-6-6V6c0-3.314,2.688-6,6-6h9.078C14.389,1.192,14,2.558,14,4H6
  C4.895,4,4,4.896,4,6v20c0,1.106,0.895,2,2,2h20c1.106,0,2-0.894,2-2v-4.5l4-3V26C32,29.313,29.313,32,26,32z M23.2,17.601
  C22.848,17.864,22.424,18,22,18c-0.304,0-0.612-0.07-0.894-0.21C20.429,17.45,20,16.758,20,16v-1.916V14
  c-6.342,0-11.691,4.218-13.412,10C6.208,22.73,6,21.39,6,20c0-7.732,6.268-14,14-14V4c0-0.758,0.429-1.45,1.106-1.79
  C21.388,2.07,21.696,2,22,2c0.424,0,0.848,0.136,1.2,0.4l8,6C31.704,8.778,32,9.37,32,10s-0.296,1.222-0.8,1.6L23.2,17.601z"></path>
</symbol>

<symbol viewBox="0 0 32 32" id="paragraph-justify-2">
  <path d="M26,32H6c-3.314,0-6-2.688-6-6V6c0-3.314,2.686-6,6-6h20c3.312,0,6,2.686,6,6v20
  C32,29.312,29.312,32,26,32z M28,6c0-1.104-0.894-2-2-2H6C4.896,4,4,4.896,4,6v20c0,1.106,0.896,2,2,2h20c1.106,0,2-0.894,2-2V6z
   M8,16h16v2H8V16z M8,12h16v2H8V12z M8,8h16v2H8V8z M16,22H8v-2h8V22z"></path>
</symbol>

<symbol viewBox="0 0 32 32" id="pull">
  <path d="M32,26c0,3.313-2.688,6-6,6s-6-2.687-6-6c0-2.61,1.676-4.806,4-5.632V10c0-1.106-0.894-2-2-2 v1.998c0,0.808-0.488,1.54-1.234,1.848c-0.747,0.31-1.608,0.138-2.18-0.432l-4-4.002C14.195,7.022,14,6.512,14,5.998 c0-0.51,0.195-1.022,0.586-1.412l4-4c0.571-0.572,1.433-0.742,2.18-0.434C21.512,0.46,22,1.19,22,1.998V4c3.312,0,6,2.686,6,6 v10.368C30.324,21.194,32,23.39,32,26z M26,24c-1.106,0-2,0.894-2,2s0.894,2,2,2s2-0.894,2-2S27.106,24,26,24z M12,26 c0,3.313-2.686,6-6,6s-6-2.687-6-6c0-2.61,1.674-4.806,4-5.632v-8.736C1.674,10.806,0,8.61,0,6c0-3.314,2.686-6,6-6s6,2.686,6,6 c0,2.61-1.674,4.806-4,5.632v8.734C10.326,21.194,12,23.39,12,26z M6,4C4.896,4,4,4.894,4,6s0.896,2,2,2s2-0.894,2-2S7.104,4,6,4z M6,24c-1.104,0-2,0.894-2,2s0.896,2,2,2s2-0.894,2-2S7.104,24,6,24z"></path>
</symbol>

<symbol viewBox="-6 0 32 32" id="question">
  <path d="M12.571 22.429v4.286q0 0.286-0.214 0.5t-0.5 0.214h-4.286q-0.286 0-0.5-0.214t-0.214-0.5v-4.286q0-0.286 0.214-0.5t0.5-0.214h4.286q0.286 0 0.5 0.214t0.214 0.5zM18.214 11.714q0 0.964-0.277 1.804t-0.625 1.366-0.982 1.063-1.027 0.777-1.089 0.634q-0.732 0.411-1.223 1.161t-0.491 1.196q0 0.304-0.214 0.58t-0.5 0.277h-4.286q-0.268 0-0.455-0.33t-0.188-0.67v-0.804q0-1.482 1.161-2.795t2.554-1.938q1.054-0.482 1.5-1t0.446-1.357q0-0.75-0.83-1.321t-1.92-0.571q-1.161 0-1.929 0.518-0.625 0.446-1.911 2.054-0.232 0.286-0.554 0.286-0.214 0-0.446-0.143l-2.929-2.232q-0.232-0.179-0.277-0.446t0.098-0.5q2.857-4.75 8.286-4.75 1.429 0 2.875 0.554t2.607 1.482 1.893 2.277 0.732 2.83z"></path>
</symbol>

<symbol viewBox="0 0 32 32" id="remove">
  <path d="M16,32C7.164,32,0,24.836,0,16S7.164,0,16,0s16,7.164,16,16S24.836,32,16,32z M16,4
  C9.374,4,4,9.374,4,16s5.374,12,12,12s12-5.374,12-12S22.626,4,16,4z M22,18H10c-1.104,0-2-0.894-2-2c0-1.104,0.896-2,2-2h12
  c1.106,0,2,0.896,2,2C24,17.106,23.106,18,22,18z"></path>
</symbol>

<symbol viewBox="0 0 32 32" id="revert">
  <path d="M20,12v2h2c1.105,0,2,0.894,2,2c0,1.106-0.895,2-2,2h-4c-1.107,0-2-0.894-2-2v-4
  c0-1.106,0.893-2,2-2C19.105,10,20,10.894,20,12z M18,30c-4.328,0-8.198-1.966-10.767-5.052c0.058-0.045,0.126-0.066,0.181-0.12
  l2.813-2.608C12.058,24.508,14.842,26,18,26c5.523,0,10-4.476,10-10c0-5.522-4.477-10-10-10c-4.838,0-8.873,3.436-9.799,8H10
  c0.808,0,1.539,0.488,1.848,1.234c0.308,0.75,0.136,1.609-0.434,2.18l-4,4C7.023,21.804,6.512,22,6,22
  c-0.513,0-1.024-0.196-1.414-0.586l-4-4c-0.572-0.57-0.742-1.434-0.435-2.18C0.459,14.488,1.191,14,2,14h2.16
  C5.129,7.218,10.947,2,18,2c7.732,0,14,6.268,14,14C32,23.731,25.732,30,18,30z"></path>
</symbol>

<!-- https://icomoon.io rocket -->
<symbol viewBox="0 0 1024 1024" id="rocket">
    <path d="M704 64l-320 320h-192l-192 256c0 0 203.416-56.652 322.066-30.084l-322.066 414.084 421.902-328.144c58.838 134.654-37.902 328.144-37.902 328.144l256-192v-192l320-320 64-320-320 64z"></path>
</symbol>

<symbol viewBox="0 0 32 32" id="safe">
  <path d="M5,12c0.553,0,1-0.448,1-1s-0.447-1-1-1s-1,0.448-1,1S4.447,12,5,12z M5,20c-0.553,0-1,0.448-1,1
  s0.447,1,1,1s1-0.448,1-1S5.553,20,5,20z M26,0H6C2.686,0,0,2.686,0,6v20c0,3.313,2.686,6,6,6h20c3.312,0,6-2.687,6-6V6
  C32,2.686,29.312,0,26,0z M28,26c0,1.106-0.894,2-2,2H6c-1.104,0-2-0.894-2-2v-2c-1.104,0-2-0.894-2-2v-2c0-1.104,0.896-2,2-2v-4
  c-1.104,0-2-0.894-2-2v-2c0-1.104,0.896-2,2-2V6c0-1.104,0.896-2,2-2h20c1.106,0,2,0.896,2,2V26z M24,6H8C6.896,6,6,6.896,6,8
  c1.104,0,2,0.896,2,2v2c0,1.106-0.896,2-2,2v4c1.104,0,2,0.896,2,2v2c0,1.106-0.896,2-2,2c0,1.106,0.896,2,2,2h16
  c1.106,0,2-0.894,2-2V8C26,6.896,25.106,6,24,6z M16,22c-3.314,0-6-2.687-6-6c0-3.314,2.686-6,6-6c3.312,0,6,2.686,6,6
  C22,19.313,19.312,22,16,22z M16,12c-2.208,0-4,1.792-4,4s1.792,4,4,4s4-1.792,4-4S18.208,12,16,12z"></path>
</symbol>

<symbol viewBox="-4 0 32 32" id="server">
  <path d="M22 12h-20c-1.094 0-2 1-2 2v4c0 1 1 2 2 2h20c1 0 2-1 2-2v-4c0-1-1-2-2-2zM4 18h-2v-4h2v4zM8 18h-2v-4h2v4zM12 18h-2v-4h2v4zM16 18h-2v-4h2v4zM22 22h-20c-1.094 0-2 1-2 2v4c0 1 1 2 2 2h20c1 0 2-1 2-2v-4c0-1-1-2-2-2zM4 28h-2v-4h2v4zM8 28h-2v-4h2v4zM12 28h-2v-4h2v4zM16 28h-2v-4h2v4zM22 2h-20c-1.094 0-2 1-2 2v4c0 1 1 2 2 2h20c1 0 2-1 2-2v-4c0-1-1-2-2-2zM4 8h-2v-4h2v4zM8 8h-2v-4h2v4zM12 8h-2v-4h2v4zM16 8h-2v-4h2v4zM22 6h-2v-2h2v2z"></path>
</symbol>

<symbol viewBox="0 0 32 32" id="settings" data-iconmelon="Batch:751dd269b91a9d766c4d020f8913f9d1">
  <path d="M30,14h-2c-0.07,0-0.128,0.034-0.198,0.04c-0.304-1.846-1.018-3.544-2.062-5.004
  c0.051-0.042,0.112-0.058,0.16-0.106l1.414-1.414c0.783-0.782,0.783-2.046,0-2.828c-0.781-0.782-2.048-0.782-2.828,0L23.07,6.1
  c-0.046,0.046-0.064,0.11-0.106,0.16c-1.458-1.046-3.158-1.758-5.004-2.062C17.966,4.128,18,4.07,18,4V2c0-1.104-0.894-2-2-2
  c-1.105,0-2,0.896-2,2v2c0,0.07,0.033,0.128,0.04,0.198c-1.847,0.304-3.546,1.016-5.004,2.062C8.994,6.21,8.977,6.148,8.93,6.1
  L7.516,4.686c-0.781-0.782-2.047-0.782-2.83,0c-0.779,0.782-0.779,2.046,0,2.828l1.416,1.414C6.148,8.976,6.208,8.994,6.26,9.036
  c-1.046,1.46-1.758,3.158-2.062,5.004C4.128,14.034,4.07,14,4,14H2c-1.105,0-2,0.896-2,2c0,1.104,0.895,2,2,2h2
  c0.07,0,0.128-0.032,0.197-0.04c0.305,1.846,1.02,3.544,2.062,5.004c-0.05,0.042-0.111,0.059-0.158,0.106l-1.416,1.414
  c-0.779,0.781-0.779,2.048,0,2.827c0.783,0.782,2.049,0.782,2.83,0l1.414-1.413c0.047-0.047,0.064-0.11,0.106-0.16
  c1.458,1.046,3.157,1.758,5.004,2.063C14.033,27.872,14,27.93,14,28v2c0,1.106,0.895,2,2,2c1.106,0,2-0.894,2-2v-2
  c0-0.07-0.034-0.128-0.04-0.198c1.846-0.306,3.544-1.018,5.004-2.063c0.042,0.05,0.059,0.113,0.106,0.16l1.415,1.413
  c0.78,0.782,2.047,0.782,2.828,0c0.783-0.779,0.783-2.046,0-2.827l-1.414-1.414c-0.048-0.046-0.109-0.062-0.16-0.106
  c1.045-1.46,1.759-3.158,2.062-5.004C27.872,17.968,27.93,18,28,18h2c1.106,0,2-0.896,2-2C32,14.896,31.106,14,30,14z M16,24
  c-4.418,0-8-3.582-8-8s3.582-8,8-8s8,3.582,8,8S20.418,24,16,24z"></path>
</symbol>

<symbol viewBox="-3 0 32 32" id="sign-in">
  <path d="M20 18v-4h8v-4h-8v-4l-6 4.5v-4.5l-8-4h16v6h2v-8h-22v26l12 6v-6h10v-10h-2v8h-8v-10.5z"></path>
</symbol>

<symbol viewBox="-3 0 32 32" id="sign-out">
  <path d="M20 24h-8v-18l-8-4h16v6h2v-8h-22v26l12 6v-6h10v-10h-2v8zM32 12l-8-6v4h-8v4h8v4l8-6z"></path>
</symbol>

<symbol viewBox="0 0 32 32" id="spam">
  <path d="M16,32C7.164,32,0,24.836,0,16S7.164,0,16,0s16,7.164,16,16S24.836,32,16,32z M16,4
  C9.374,4,4,9.374,4,16s5.374,12,12,12s12-5.374,12-12S22.626,4,16,4z M16,20c-1.105,0-2-0.894-2-2c0,0-2-5.792-2-8s1.792-4,4-4
  s4,1.792,4,4l-2,8C18,19.106,17.106,20,16,20z M16,22c1.106,0,2,0.896,2,2c0,1.106-0.894,2-2,2c-1.105,0-2-0.894-2-2
  C14,22.896,14.895,22,16,22z"></path>
</symbol>

<symbol viewBox="0 0 32 32" id="spam-2" data-iconmelon="Batch:aa8461b67c1bcdf90944b2f7db4c3549">
  <path id="spam-2" d="M16,0c3.779,0,6.857,3.077,6.857,6.857c0,0.188-0.023,0.373-0.068,0.558l-2.23,8.914
  c-0.168,2.368-2.148,4.242-4.559,4.242c-2.371,0-4.33-1.814-4.549-4.13c-0.564-1.66-2.309-7.006-2.309-9.584
  C9.143,3.077,12.219,0,16,0z M16,22.857c2.52,0,4.57,2.051,4.57,4.571S18.52,32,16,32c-2.521,0-4.572-2.051-4.572-4.571
  S13.479,22.857,16,22.857z"></path>
</symbol>

<symbol viewBox="0 0 32 32" id="speech-bubble-right-2" data-iconmelon="Batch:e75f73cebec28554a3ae21ab49ed190d">
  <path id="speech-bubble-right-2" d="M26,26l-4,6l-4-6H6c-3.314,0-6-2.688-6-6V6c0-3.314,2.686-6,6-6h20
  c3.312,0,6,2.686,6,6v14C32,23.312,29.312,26,26,26z M28,6c0-1.104-0.894-2-2-2H6C4.896,4,4,4.896,4,6v14c0,1.106,0.896,2,2,2
  h13.332L22,26l2.668-4H26c1.106,0,2-0.894,2-2V6z M8,12h16v2H8V12z M8,8h16v2H8V8z M16,18H8v-2h8V18z"></path>
</symbol>

<symbol viewBox="0 0 33 33" id="spinner-3">
  <path d="M16,0C7.164,0,0,7.164,0,16s7.164,16,16,16s16-7.164,16-16S24.836,0,16,0z M16,24
  c-4.418,0-8-3.582-8-8s3.582-8,8-8s8,3.582,8,8S20.418,24,16,24z"></path>
</symbol>

<!-- http://www.flaticon.com/free-icon/giant-squid_74200 -->
<symbol viewBox="0 0 491.269 491.269" id="squid">
    <path d="M351.53,62.064l91.73-54.621l-94.699-7.411c-3.389-0.265-6.715,1.15-8.88,3.786c-2.157,2.632-2.884,6.159-1.967,9.444
        L351.53,62.064z"/>
    <path d="M474.419,16.851c-3.214-3.214-8.2-3.837-12.105-1.511L335.925,90.59c-7.07,4.196-13.574,9.264-19.385,15.071
        l-26.287,26.299c17.857,1.659,34.779,8.66,47.59,21.469c12.809,12.809,19.809,29.732,21.469,47.59l26.299-26.289
        c5.807-5.81,10.874-12.313,15.07-19.384l75.25-126.388C478.257,25.052,477.634,20.065,474.419,16.851z"/>
    <path d="M491.238,142.709l-7.41-94.7l-54.622,91.731l48.804,13.815c3.284,0.917,6.811,0.19,9.443-1.967
        C490.087,149.423,491.502,146.098,491.238,142.709z"/>
    <path d="M326.166,165.126c0.04,0.038,0.02,0.02-0.01-0.011c-0.033-0.034-0.063-0.063-0.012-0.011
        c-0.03-0.028-0.053-0.05,0.01,0.011C326.218,165.181,326.196,165.158,326.166,165.126z"/>
    <path d="M282.876,147.769c-16.058-0.001-32.113,6.114-44.364,18.364c-9.665,9.665-23.804,30.061-35.907,52.67
        c0,0-28.048-5.692-47.076-5.692c-19.028,0-37.536,26.126-48.723,27.638c-8.828,1.192-16.121-3.569-9.686-19.382
        c1.964-4.827,7.222-21.097-6.549-34.866c-3.29-3.291-7.442-3.737-10.93-1.317c-3.759,2.609-4.679,7.761-2.082,11.518
        c6.779,11.561,1.162,15.882-2.533,22.706c-16.081,29.692,10.247,46.25,21.577,48.318c12.944,2.364,17.06,0.141,57.938-21.592
        c0,0,3.694-1.841,7.958,1.437c-13.27,3.67-73.194,48.513-95.911,38.385c-26.83-11.963-37.962-18.823-60.183-13.749
        c-3.987,0.944-6.797,4.736-6.361,8.924c0.488,4.553,4.553,7.852,9.104,7.376c0.112-0.107,3.405-0.35,7.667-0.307
        c14.035,0,36.031,25.619,62.02,25.619c17.436,0.514,70.35-22.504,70.526-22.561c-0.108,0.079-76.213,56-80.66,59.125
        c-7.118,5.001-13.509,11.589-53.566-2.456c-4.097-1.224-8.554,0.887-10.118,4.949c-1.632,4.268,0.499,9.056,4.76,10.691
        c30.504,11.696,44.952,20.687,75.819,1.291c1.089-0.684,85.091-53.346,109.439-68.621c-15.274,24.349-67.938,108.35-68.621,109.439
        c-19.396,30.867-10.405,45.315,1.291,75.819c1.636,4.261,6.423,6.392,10.69,4.76c4.063-1.564,6.172-6.022,4.949-10.118
        c-14.045-40.058-7.457-46.448-2.456-53.566c3.124-4.448,59.046-80.552,59.125-80.66c-0.057,0.177-23.075,53.09-22.562,70.526
        c0,25.989,25.619,47.985,25.619,62.02c0.042,4.261-0.201,7.555-0.308,7.666c-0.476,4.552,2.823,8.616,7.376,9.104
        c4.188,0.435,7.98-2.373,8.925-6.361c5.073-22.22-1.786-33.352-13.749-60.182c-10.129-22.717,34.715-82.642,38.385-95.912
        c3.277,4.264,1.437,7.958,1.437,7.958c-21.733,40.879-23.956,44.994-21.593,57.938c2.069,11.331,18.627,37.659,48.318,21.578
        c6.824-3.695,11.146-9.313,22.705-2.534c3.758,2.597,8.91,1.677,11.518-2.082c2.421-3.487,1.975-7.64-1.316-10.93
        c-13.77-13.771-30.039-8.513-34.866-6.549c-15.813,6.436-20.573-0.857-19.382-9.685c1.512-11.188,27.639-29.694,27.639-48.723
        c0-19.028-5.692-47.076-5.692-47.076c22.609-12.104,43.005-26.242,52.669-35.907c12.251-12.251,18.365-28.306,18.365-44.365
        c0.008-15.408-5.684-31.614-17.348-43.278C314.491,153.452,298.283,147.76,282.876,147.769z"/>
</symbol>

<symbol viewBox="0 0 32 32" id="star" data-iconmelon="Batch:ec01f193fc5d37938332060c3f77119a">
  <path d="M16,0C7.164,0,0,7.164,0,16s7.164,16,16,16s16-7.164,16-16S24.836,0,16,0z M16,28
  C9.374,28,4,22.626,4,16S9.374,4,16,4s12,5.374,12,12S22.626,28,16,28z M18.94,11.956L16,6.002l-2.938,5.954L6.49,12.912
  l4.756,4.634l-1.124,6.542L16,21l5.876,3.09l-1.122-6.542l4.754-4.634L18.94,11.956z"></path>
</symbol>

<symbol viewBox="0 0 32 32" id="star-2">
  <path d="M15.999,0.781l4.946,10.022L32,12.409l-8.002,7.801l1.893,11.01l-9.892-5.201L6.11,31.22
  L8,20.21l-8-7.801l11.055-1.606L15.999,0.781z"></path>
</symbol>

<symbol viewBox="0 0 32 32" id="swap-2">
  <path d="M31.848,15.235c-0.307-0.746-1.039-1.234-1.848-1.234h-2v-4c0-3.314-2.686-6-5.998-6h-4V1.999
  c0-0.808-0.488-1.54-1.234-1.848c-0.748-0.308-1.608-0.136-2.18,0.434l-4,4c-0.391,0.39-0.586,0.902-0.586,1.414
  s0.195,1.024,0.586,1.414l4,4c0.571,0.572,1.432,0.742,2.18,0.434c0.746-0.308,1.234-1.04,1.234-1.848V8.001h4c1.105,0,2,0.896,2,2
  v4h-2c-0.809,0-1.541,0.488-1.848,1.234c-0.309,0.748-0.137,1.608,0.434,2.18l4,4c0.389,0.39,0.902,0.586,1.414,0.586
  s1.023-0.196,1.412-0.586l4-4C31.986,16.843,32.156,15.983,31.848,15.235z M16.002,20.001c1.105,0,2,0.894,2,2V30
  c0,1.106-0.895,2-2,2h-8c-1.104,0-2-0.894-2-2v-2h4h4v-4v-3.999H16.002z M12.002,24v-8c0-1.104-0.896-2-2-2h-8c-1.104,0-2,0.896-2,2
  v8c0,1.106,0.896,2,2,2h8C11.105,26,12.002,25.106,12.002,24z M8.002,22.001h-4v-4h4V22.001z"></path>
</symbol>

<symbol viewBox="0 0 32 32" id="tag">
  <path d="M30.242,15.758l-14-14C15.07,0.586,13.536,0,12,0H0v12c0,1.536,0.586,3.07,1.758,4.242l14,14 c2.344,2.344,6.141,2.344,8.484,0l6-6C32.586,21.898,32.586,18.102,30.242,15.758z M27.414,21.414l-6,6 c-0.782,0.782-2.046,0.782-2.828,0l-14-14C4.195,13.024,4,12.512,4,12V4h8c0.512,0,1.023,0.196,1.414,0.586l14,14 C28.196,19.368,28.196,20.632,27.414,21.414z M8,6C6.895,6,6,6.894,6,8s0.895,2,2,2s2-0.894,2-2S9.105,6,8,6z"></path>
</symbol>

<symbol viewBox="0 0 32 32" id="terminal">
  <path d="M26,32H6c-3.314,0-6-2.687-6-6V6c0-3.314,2.686-6,6-6h20c3.312,0,6,2.686,6,6v20
  C32,29.313,29.312,32,26,32z M28,6c0-1.104-0.894-2-2-2H6C4.896,4,4,4.896,4,6v4h24V6z M28,12H4v14c0,1.106,0.896,2,2,2h20
  c1.106,0,2-0.894,2-2V12z M10,20h4v2h-4V20z M6,20v-2h2v2H6z M8,16h2v2H8V16z M6,14h2v2H6V14z M8,8H6V6h2V8z M12,8h-2V6h2V8z M26,8
  H14V6h12V8z"></path>
</symbol>

<symbol viewBox="0 0 32 32" id="tick">
  <path d="M26,0H6C2.686,0,0,2.688,0,6v20c0,3.313,2.686,6,6,6h20c3.313,0,6-2.687,6-6V6
  C32,2.688,29.313,0,26,0z M28,26c0,1.106-0.894,2-2,2H6c-1.104,0-2-0.894-2-2V6c0-1.104,0.896-2,2-2h20c1.106,0,2,0.896,2,2V26z
   M20.918,10.34l-7.07,7.07l-2.83-2.828c-0.779-0.782-2.045-0.782-2.828,0c-0.781,0.782-0.781,2.048,0,2.828l4.244,4.242
  c0.78,0.781,2.047,0.781,2.828,0l8.484-8.484c0.782-0.782,0.782-2.046,0-2.828C22.964,9.558,21.7,9.558,20.918,10.34z"></path>
</symbol>

<!-- https://icomoon.io tick -->
<symbol viewBox="0 0 1024 1024" id="tick-2">
    <path d="M864 128l-480 480-224-224-160 160 384 384 640-640z"></path>
</symbol>

<symbol viewBox="0 0 32 32" id="unlocked">
  <path d="M26,14H10v-4c0-3.314,2.686-6,6-6c2.61,0,4.804,1.676,5.632,4h4.166
  C24.872,3.436,20.838,0,16,0C10.479,0,6,4.476,6,10v4c-1.104,0-2,0.896-2,2v14c0,1.106,0.896,2,2,2h20c1.106,0,2-0.894,2-2V16
  C28,14.896,27.106,14,26,14z M24,18v10H8V18H24z"></path>
</symbol>

<symbol viewBox="0 0 32 32" id="users">
  <path d="M25.778,17.512C28.914,19.25,31.382,22.332,32,26c0,3.312-2.688,6-6,6h-2.765
  c1.193-1.042,2.068-2.42,2.48-4H26c1.106,0,2-0.894,2-2c-0.516-1.992-1.878-3.664-3.644-4.739c-0.932-1.617-2.188-3.072-3.715-4.25
  c0.232-0.395,0.433-0.807,0.606-1.229C22.843,15.254,24,13.77,24,12V8c0-1.772-1.157-3.256-2.754-3.782
  c-0.652-1.586-1.72-2.942-3.042-3.998C18.784,0.086,19.38,0,20,0c4.418,0,8,3.582,8,8v4C28,14.142,27.146,16.076,25.778,17.512z
   M18,32H6c-3.314,0-6-2.688-6-6l0,0c0.617-3.668,3.086-6.75,6.225-8.488C4.854,16.076,4,14.142,4,12V8c0-4.418,3.582-8,8-8
  s8,3.582,8,8v4c0,2.142-0.854,4.076-2.222,5.512C20.914,19.25,23.382,22.332,24,26l0,0C24,29.312,21.312,32,18,32z M16,12V8
  c0-2.208-1.792-4-4-4S8,5.792,8,8v4c0,2.208,1.792,4,4,4S16,14.208,16,12z M20,26c-0.892-3.446-4.277-6-8-6l0,0l0,0
  c-3.725,0-7.107,2.554-8,6l0,0c0,1.106,0.896,2,2,2h12C19.106,28,20,27.106,20,26L20,26z"></path>
</symbol>

<!-- https://icomoon.io warning -->
<symbol viewBox="0 0 1024 1024" id="warning">
    <path d="M512 158.724l-344.834 737.276h689.668l-344.834-737.276zM512 0v0c22.070 0 44.14 14.882 60.884
        44.648l437.072 871.112c33.49 59.532 5 108.24-63.302 108.24h-869.308c-68.304 0-96.79-48.708-63.304-108.24l437.074-871.112c16.744-29.766
        38.814-44.648 60.884-44.648zM448 768c0-35.346 28.654-64 64-64s64 28.654 64 64c0 35.346-28.654 64-64 64-35.346 0-64-28.654-64-64zM512
        384c35.346 0 64 28.654 64 64l-20 192h-88l-20-192c0-35.346 28.654-64 64-64z"></path>
</symbol>

<symbol viewBox="0 0 32 32" id="watch">
  <path d="M16,28C4,28,0,16,0,16S4,4,16,4s16,12,16,12S28,28,16,28z M16,8c-4.418,0-8,3.582-8,8
  s3.582,8,8,8s8-3.582,8-8S20.418,8,16,8z M16,20c-2.208,0-4-1.792-4-4c0-0.068,0.016-0.13,0.02-0.198C12.33,15.91,12.652,16,13,16
  c1.656,0,3-1.344,3-3c0-0.348-0.09-0.67-0.197-0.98C15.87,12.016,15.932,12,16,12c2.208,0,4,1.792,4,4S18.208,20,16,20z"></path>
</symbol>

</svg>
