<svg xmlns="http://www.w3.org/2000/svg" width="254.082" height="254.105" viewBox="0.959 0.947 254.082 254.105" enable-background="new 0.959 0.947 254.082 254.105"><filter id="x" color-interpolation-filters="sRGB"><feGaussianBlur stdDeviation=".368"/></filter><filter height="1.213" width="1.03" y="-.107" x="-.015" id="w" color-interpolation-filters="sRGB"><feGaussianBlur stdDeviation=".493"/></filter><filter id="r" color-interpolation-filters="sRGB"><feGaussianBlur stdDeviation=".796"/></filter><title>HAL9000</title><g><g transform="translate(0 -796.362) translate(-727 -21)"><path fill="#5D5F5F" d="M982.041 945.362c.006 70.162-56.866 127.046-127.029 127.053-70.162.007-127.046-56.865-127.053-127.028v-.025c-.007-70.163 56.866-127.046 127.028-127.053s127.045 56.866 127.053 127.028l.001.025z"/><radialGradient id="a" cx="1669.17" cy="684.327" r="214.643" gradientTransform="matrix(.293 .014 .028 -.591 346.815 1203.606)" gradientUnits="userSpaceOnUse"><stop offset="0" stop-color="#F5F4F1"/><stop offset="1" stop-color="#F5F4F1" stop-opacity="0"/></radialGradient><path fill="url(#a)" d="M982.041 945.362c.006 70.162-56.866 127.046-127.029 127.053-70.162.007-127.046-56.865-127.053-127.028v-.025c-.007-70.163 56.866-127.046 127.028-127.053s127.045 56.866 127.053 127.028l.001.025z"/><radialGradient id="b" cx="2931.59" cy="1036.928" r="214.642" gradientTransform="matrix(.112 .123 .439 -.397 167.312 913.906)" gradientUnits="userSpaceOnUse"><stop offset="0" stop-color="#F5F4F1"/><stop offset="1" stop-color="#F5F4F1" stop-opacity="0"/></radialGradient><path fill="url(#b)" d="M982.041 945.362c.006 70.162-56.866 127.046-127.029 127.053-70.162.007-127.046-56.865-127.053-127.028v-.025c-.007-70.163 56.866-127.046 127.028-127.053s127.045 56.866 127.053 127.028l.001.025z"/><radialGradient id="c" cx="636.807" cy="135.286" r="214.643" gradientTransform="matrix(.143 -.143 -.427 -.426 725.535 1013.88)" gradientUnits="userSpaceOnUse"><stop offset="0" stop-color="#F5F4F1"/><stop offset="1" stop-color="#F5F4F1" stop-opacity="0"/></radialGradient><path fill="url(#c)" d="M982.041 945.362c.006 70.162-56.866 127.046-127.029 127.053-70.162.007-127.046-56.865-127.053-127.028v-.025c-.007-70.163 56.866-127.046 127.028-127.053s127.045 56.866 127.053 127.028l.001.025z"/><radialGradient id="d" cx="893.43" cy="904.759" r="214.643" gradientTransform="matrix(.33 .664 .601 -.298 -96.948 667.609)" gradientUnits="userSpaceOnUse"><stop offset="0" stop-color="#0E191C"/><stop offset="1" stop-color="#0E191C" stop-opacity="0"/></radialGradient><path fill="url(#d)" d="M982.041 945.362c.006 70.162-56.866 127.046-127.029 127.053-70.162.007-127.046-56.865-127.053-127.028v-.025c-.007-70.163 56.866-127.046 127.028-127.053s127.045 56.866 127.053 127.028l.001.025z"/><radialGradient id="e" cx="1478.302" cy="230.431" r="214.568" gradientTransform="matrix(.352 -.012 -.02 -.592 343.631 1222.886)" gradientUnits="userSpaceOnUse"><stop offset="0" stop-color="#424A4B"/><stop offset="1" stop-color="#424A4B" stop-opacity="0"/></radialGradient><path fill="url(#e)" d="M982.041 945.362c.006 70.162-56.866 127.046-127.029 127.053-70.162.007-127.046-56.865-127.053-127.028v-.025c-.007-70.163 56.866-127.046 127.028-127.053s127.045 56.866 127.053 127.028l.001.025z"/><radialGradient id="f" cx="1041.893" cy="1168.123" r="214.643" gradientTransform="matrix(-.171 .366 .607 .284 439.562 267.323)" gradientUnits="userSpaceOnUse"><stop offset="0" stop-color="#0A1314"/><stop offset="1" stop-color="#0A1314" stop-opacity="0"/></radialGradient><path fill="url(#f)" d="M982.041 945.362c.006 70.162-56.866 127.046-127.029 127.053-70.162.007-127.046-56.865-127.053-127.028v-.025c-.007-70.163 56.866-127.046 127.028-127.053s127.045 56.866 127.053 127.028l.001.025z"/></g><g transform="translate(0 -796.362)"><path fill="#706062" d="M249.383 924.362c.008 67.038-54.332 121.389-121.371 121.396-67.038.007-121.389-54.333-121.395-121.372v-.023c-.007-67.039 54.333-121.389 121.371-121.396 67.038-.006 121.389 54.333 121.395 121.372v.023z"/><path fill="#767676" d="M249.383 924.362c.008 67.038-54.332 121.389-121.371 121.396-67.038.007-121.389-54.333-121.395-121.372v-.023c-.007-67.039 54.333-121.389 121.371-121.396 67.038-.006 121.389 54.333 121.395 121.372v.023z"/><radialGradient id="g" cx="639.573" cy="1242.142" r="214.642" gradientTransform="matrix(-.006 .407 .559 .009 -447.441 649.436)" gradientUnits="userSpaceOnUse"><stop offset="0" stop-color="#444544"/><stop offset="1" stop-color="#706062" stop-opacity="0"/></radialGradient><path fill="url(#g)" d="M249.383 924.362c.008 67.038-54.332 121.389-121.371 121.396-67.038.007-121.389-54.333-121.395-121.372v-.023c-.007-67.039 54.333-121.389 121.371-121.396 67.038-.006 121.389 54.333 121.395 121.372v.023z"/><radialGradient id="h" cx="-230.088" cy="2242.046" r="214.643" gradientTransform="matrix(-.074 .083 .147 .13 -126.359 724.441)" gradientUnits="userSpaceOnUse"><stop offset="0" stop-color="#CFCDC7"/><stop offset="1" stop-color="#CFCDC7" stop-opacity="0"/></radialGradient><path fill="url(#h)" d="M249.383 924.362c.008 67.038-54.332 121.389-121.371 121.396-67.038.007-121.389-54.333-121.395-121.372v-.023c-.007-67.039 54.333-121.389 121.371-121.396 67.038-.006 121.389 54.333 121.395 121.372v.023z"/><radialGradient id="i" cx="-1664.215" cy="1371.318" r="214.651" gradientTransform="matrix(-.158 .005 .007 .214 -141.055 762.333)" gradientUnits="userSpaceOnUse"><stop offset="0" stop-color="#E0D8D4"/><stop offset=".676" stop-color="#E0D8D4" stop-opacity=".455"/><stop offset="1" stop-color="#E0D8D4" stop-opacity="0"/></radialGradient><path fill="url(#i)" d="M249.383 924.362c.008 67.038-54.332 121.389-121.371 121.396-67.038.007-121.389-54.333-121.395-121.372v-.023c-.007-67.039 54.333-121.389 121.371-121.396 67.038-.006 121.389 54.333 121.395 121.372v.023z"/><radialGradient id="j" cx="5202.613" cy="859.103" r="214.643" gradientTransform="matrix(.037 .044 .29 -.241 -405.173 969.986)" gradientUnits="userSpaceOnUse"><stop offset="0" stop-color="#B1ABA9"/><stop offset="1" stop-color="#B1ABA9" stop-opacity="0"/></radialGradient><path fill="url(#j)" d="M249.383 924.362c.008 67.038-54.332 121.389-121.371 121.396-67.038.007-121.389-54.333-121.395-121.372v-.023c-.007-67.039 54.333-121.389 121.371-121.396 67.038-.006 121.389 54.333 121.395 121.372v.023z"/><radialGradient id="k" cx="283.457" cy="1072.376" r="214.643" gradientTransform="matrix(.019 .391 .744 -.037 -791.693 857.331)" gradientUnits="userSpaceOnUse"><stop offset="0" stop-color="#473E3E"/><stop offset="1" stop-color="#473E3E" stop-opacity="0"/></radialGradient><path fill="url(#k)" d="M249.383 924.362c.008 67.038-54.332 121.389-121.371 121.396-67.038.007-121.389-54.333-121.395-121.372v-.023c-.007-67.039 54.333-121.389 121.371-121.396 67.038-.006 121.389 54.333 121.395 121.372v.023z"/><radialGradient id="l" cx="984.279" cy="648.012" r="214.643" gradientTransform="matrix(.284 .016 .032 -.565 -168.219 1160.67)" gradientUnits="userSpaceOnUse"><stop offset="0" stop-color="#B9B5B4"/><stop offset="1" stop-color="#9D9290" stop-opacity="0"/></radialGradient><path fill="url(#l)" d="M249.383 924.362c.008 67.038-54.332 121.389-121.371 121.396-67.038.007-121.389-54.333-121.395-121.372v-.023c-.007-67.039 54.333-121.389 121.371-121.396 67.038-.006 121.389 54.333 121.395 121.372v.023z"/><radialGradient id="m" cx="-376.08" cy="1409.362" r="214.643" gradientTransform="matrix(-.047 .065 .46 .329 -633.078 419.637)" gradientUnits="userSpaceOnUse"><stop offset="0" stop-color="#626463"/><stop offset="1" stop-color="#626463" stop-opacity="0"/></radialGradient><path fill="url(#m)" d="M249.383 924.362c.008 67.038-54.332 121.389-121.371 121.396-67.038.007-121.389-54.333-121.395-121.372v-.023c-.007-67.039 54.333-121.389 121.371-121.396 67.038-.006 121.389 54.333 121.395 121.372v.023z"/></g><g><g><path stroke="#000" d="M237.893 128c.006 60.692-49.189 109.898-109.882 109.904s-109.898-49.19-109.904-109.882v-.021c-.006-60.692 49.19-109.898 109.882-109.904s109.897 49.19 109.903 109.882l.001.021z"/><g transform="translate(0 -796.362)"><radialGradient id="n" cx="142.799" cy="837.699" r="87.549" gradientTransform="matrix(.749 0 0 -.749 20.983 1552.148)" gradientUnits="userSpaceOnUse"><stop offset="0" stop-color="#EA1117"/><stop offset=".369" stop-color="#CD0D14"/><stop offset="1" stop-color="#C10914" stop-opacity="0"/></radialGradient><path opacity=".381" fill="url(#n)" enable-background="new" d="M193.047 924.362c0 35.925-29.122 65.047-65.047 65.047s-65.047-29.122-65.047-65.047 29.122-65.047 65.047-65.047 65.047 29.122 65.047 65.047z"/><radialGradient id="o" cx="53.355" cy="897.051" r="87.547" gradientTransform="matrix(1 0 0 -1 74.644 1821.413)" gradientUnits="userSpaceOnUse"><stop offset="0" stop-color="#EA1117"/><stop offset=".369" stop-color="#D3070E"/><stop offset="1" stop-color="#C10914" stop-opacity="0"/></radialGradient><path fill="url(#o)" d="M214.797 924.362c0 47.938-38.859 86.797-86.797 86.797-47.937 0-86.797-38.859-86.797-86.797 0-47.937 38.86-86.797 86.797-86.797 47.938 0 86.797 38.86 86.797 86.797z"/><radialGradient id="p" cx="42.875" cy="902.237" r="44.125" gradientTransform="matrix(1 0 0 -1 85.125 1828.599)" gradientUnits="userSpaceOnUse"><stop offset="0" stop-color="#EA1117"/><stop offset="1" stop-color="#EA1117" stop-opacity="0"/></radialGradient><path fill="url(#p)" d="M171.375 926.362c0 23.955-19.42 43.375-43.375 43.375-23.956 0-43.375-19.42-43.375-43.375 0-23.956 19.419-43.375 43.375-43.375 23.955 0 43.375 19.42 43.375 43.375z"/><radialGradient id="q" cx="351.723" cy="945.27" r="20.152" gradientTransform="matrix(1.274 0 0 -1.274 -319.994 2128.365)" gradientUnits="userSpaceOnUse"><stop offset="0" stop-color="#F8EE46"/><stop offset="1" stop-color="#D3321C" stop-opacity="0"/></radialGradient><path fill="url(#q)" d="M161.943 924.362c.008 18.746-15.182 33.949-33.929 33.958-18.746.009-33.95-15.183-33.958-33.929v-.029c-.008-18.747 15.182-33.95 33.929-33.958 18.746-.008 33.95 15.182 33.958 33.929v.029z"/><path fill="#F4F846" d="M131.535 924.362c0 1.953-1.582 3.535-3.535 3.535s-3.536-1.582-3.536-3.535 1.583-3.536 3.536-3.536c1.953.001 3.535 1.584 3.535 3.536z"/></g></g><g><g filter="url(#r)" transform="translate(0 -796.362)"><path fill="#C9C9BF" d="M98.203 833.523l2.121 8.309c15.361-5.88 45.98-3.833 61.872 3.712l1.592-8.309c-20.003-8.681-51.389-8.071-65.585-3.712z"/><linearGradient id="s" gradientUnits="userSpaceOnUse" x1="-23.437" y1="172.891" x2="-19.687" y2="177.891" gradientTransform="matrix(1 0 0 -1 84 1027.362)"><stop offset="0" stop-color="#BEBBB6"/><stop offset="1" stop-color="#BEBBB6" stop-opacity="0"/></linearGradient><path fill="url(#s)" d="M58.604 849.256c-13.041 17.05-17.381 27.717-19.092 37.3 3.263-1.562 4.807-4.567 6.341-7.261 6.117-9.486 12.364-19.077 21.059-25.443l-8.308-4.596z"/><linearGradient id="t" gradientUnits="userSpaceOnUse" x1="-18.359" y1="151.204" x2="5.141" y2="149.704" gradientTransform="matrix(1 0 0 -1 84 1027.362)"><stop offset="0" stop-color="#fff"/><stop offset="1" stop-color="#fff" stop-opacity="0"/></linearGradient><path opacity=".538" fill="url(#t)" enable-background="new" d="M58.604 877.717l11.314-8.309 9.546 9.369-10.784 4.596-10.076-5.656z"/><path opacity=".538" fill="#fff" enable-background="new" d="M111.107 853.499c9.392-1.298 19.13-.87 28.991.177.569 2.023.782 4.402.884 6.894-9.252-.687-18.502-1.334-27.754-.177-.424-2.016-1.229-4.411-2.121-6.894z"/><path fill="#816461" d="M178.812 871.177l-5.127 6.541c2.701.955 6.198 2.109 10.784 3.536 1.186-1.422 2.821-3.293 4.95-5.657-2.937-1.674-6.263-3.217-10.607-4.42z"/><path fill="#F15E4F" d="M91.662 896.986l5.126-3.889 2.298 3.536-3.889 3.182-3.535-2.829z"/><path fill="#EC4E3E" d="M118.885 882.313c5.813-.941 11.075-.225 16.441.177l-.354 3.182c-5.245-.162-10.489-.554-15.734.177l-.353-3.536z"/><path fill="#E66044" d="M119.769 895.218c7.327-1.535 13.821-1.005 19.269 2.122l1.414-2.829c-7.722-3.491-16.363-3.266-21.39-1.591l.707 2.298z"/><linearGradient id="u" gradientUnits="userSpaceOnUse" x1="75.048" y1="131.231" x2="70.982" y2="131.762" gradientTransform="matrix(1 0 0 -1 84 1027.362)"><stop offset="0" stop-color="#EA3231"/><stop offset="1" stop-color="#EA3231" stop-opacity="0"/></linearGradient><path fill="url(#u)" d="M160.251 898.754l2.122-3.005-4.95-2.298-2.651 2.298 5.479 3.005z"/><path fill="#F74639" d="M155.301 906.709c-2.275-3.534-2.727-5.375-4.772-7.071l-1.591 1.061c2.47 2.243 4.483 4.828 6.01 7.778l.353-1.768z"/><path fill="#EF4D2B" d="M132.497 901.405c-2.888-.757-5.774-.589-8.662-.177v-1.944c2.703-.816 5.548-.774 8.485-.177l.177 2.298z"/><path fill="#EB5241" d="M108.632 900.521c-3.033 2.759-5.039 5.903-6.187 9.369l-1.061-1.061c1.177-3.765 2.998-7.354 6.011-10.43l1.237 2.122z"/><path fill="#F7432E" d="M110.577 908.476l1.061-2.475-2.652-1.061-1.237 2.475 2.828 1.061z"/><path fill="#F7432E" d="M146.992 908.3l1.238-1.945-2.121-1.237-1.768 1.414 2.651 1.768z"/><linearGradient id="v" gradientUnits="userSpaceOnUse" x1="121.112" y1="163" x2="112.111" y2="156.499" gradientTransform="matrix(1 0 0 -1 84 1027.362)"><stop offset="0" stop-color="#8F908A"/><stop offset="1" stop-color="#8F908A" stop-opacity="0"/></linearGradient><path fill="url(#v)" d="M191.57 855.65l4.773-4.065c8.446 4.491 14.501 13.367 20.152 22.98l-2.475 2.475c-7.307-7.481-14.676-14.839-22.45-21.39z"/></g><path fill="#35373C" d="M128 26.25c-12.155 0-23.819 2.153-34.625 6.062l2.344.156c10.146-3.393 20.994-4.219 32.281-4.219 15.022 0 29.29 2.25 42.125 8.094l2.938.406c-13.584-6.72-28.881-10.499-45.063-10.499z" opacity=".931" filter="url(#w)" enable-background="new"/><path fill="#BAB7B2" d="M49.719 63c-3.711 4.464-7.056 9.251-9.969 14.312l.188.031c1.243-2.051 3.554-4.056 4.932-6.01 1.73-2.455 3.566-5.829 5.506-8.115l-.657-.218z" opacity=".393" filter="url(#x)" enable-background="new"/></g></g></g></svg>