<?xml version="1.0" encoding="utf-8"?>
<!-- Generator: Adobe Illustrator 16.0.4, SVG Export Plug-In . SVG Version: 6.00 Build 0)  -->
<!DOCTYPE svg PUBLIC "-//W3C//DTD SVG 1.1//EN" "http://www.w3.org/Graphics/SVG/1.1/DTD/svg11.dtd">
<svg version="1.1"
	 id="svg2" xmlns:dc="http://purl.org/dc/elements/1.1/" xmlns:cc="http://creativecommons.org/ns#" xmlns:rdf="http://www.w3.org/1999/02/22-rdf-syntax-ns#" xmlns:svg="http://www.w3.org/2000/svg" xmlns:sodipodi="http://sodipodi.sourceforge.net/DTD/sodipodi-0.dtd" xmlns:inkscape="http://www.inkscape.org/namespaces/inkscape" sodipodi:docname="HAL9000.svg" inkscape:version="0.48.2 r9819"
	 xmlns="http://www.w3.org/2000/svg" xmlns:xlink="http://www.w3.org/1999/xlink" x="0px" y="0px" width="254.082px"
	 height="254.105px" viewBox="0.959 0.947 254.082 254.105" enable-background="new 0.959 0.947 254.082 254.105"
	 xml:space="preserve">
<filter  id="filter4511" color-interpolation-filters="sRGB">
	<feGaussianBlur  stdDeviation="0.36832783" id="feGaussianBlur4513"></feGaussianBlur>
</filter>
<filter  height="1.2134721" width="1.0297188" y="-0.10673607" x="-0.014859335" id="filter4487" color-interpolation-filters="sRGB">
	<feGaussianBlur  stdDeviation="0.49337636" id="feGaussianBlur4489"></feGaussianBlur>
</filter>
<filter  id="filter4426" color-interpolation-filters="sRGB">
	<feGaussianBlur  stdDeviation="0.79644532" id="feGaussianBlur4428"></feGaussianBlur>
</filter>
<title  id="title3116">HAL9000</title>
<sodipodi:namedview  inkscape:cy="146.92353" inkscape:cx="94.488987" inkscape:zoom="2.6074563" showgrid="false" guidetolerance="10" gridtolerance="10" objecttolerance="10" borderopacity="1" bordercolor="#666666" pagecolor="#ffffff" id="namedview139" inkscape:current-layer="svg2" inkscape:window-maximized="1" inkscape:window-y="0" inkscape:window-x="0" inkscape:window-width="2560" inkscape:pageshadow="2" inkscape:pageopacity="0" inkscape:window-height="1292">
	</sodipodi:namedview>
<g id="layer1" transform="translate(0,-796.36218)">
	<g id="g4726" transform="translate(-727,-21)">
		<path id="path4724" fill="#5D5F5F" d="M982.041,945.362c0.006,70.162-56.866,127.046-127.029,127.053
			c-70.162,0.007-127.046-56.865-127.053-127.028c0-0.008,0-0.017,0-0.025c-0.007-70.163,56.866-127.046,127.028-127.053
			s127.045,56.866,127.053,127.028C982.041,945.346,982.041,945.354,982.041,945.362z"/>
		
			<radialGradient id="path4642_1_" cx="1669.1699" cy="684.3275" r="214.6429" gradientTransform="matrix(0.2935 0.014 0.0282 -0.5912 346.8154 1203.6058)" gradientUnits="userSpaceOnUse">
			<stop  offset="0" style="stop-color:#F5F4F1"/>
			<stop  offset="1" style="stop-color:#F5F4F1;stop-opacity:0"/>
		</radialGradient>
		<path id="path4642" fill="url(#path4642_1_)" d="M982.041,945.362c0.006,70.162-56.866,127.046-127.029,127.053
			c-70.162,0.007-127.046-56.865-127.053-127.028c0-0.008,0-0.017,0-0.025c-0.007-70.163,56.866-127.046,127.028-127.053
			s127.045,56.866,127.053,127.028C982.041,945.346,982.041,945.354,982.041,945.362z"/>
		
			<radialGradient id="path4670_1_" cx="2931.5898" cy="1036.9276" r="214.642" gradientTransform="matrix(0.1118 0.1235 0.4387 -0.3973 167.3124 913.9056)" gradientUnits="userSpaceOnUse">
			<stop  offset="0" style="stop-color:#F5F4F1"/>
			<stop  offset="1" style="stop-color:#F5F4F1;stop-opacity:0"/>
		</radialGradient>
		<path id="path4670" fill="url(#path4670_1_)" d="M982.041,945.362c0.006,70.162-56.866,127.046-127.029,127.053
			c-70.162,0.007-127.046-56.865-127.053-127.028c0-0.008,0-0.017,0-0.025c-0.007-70.163,56.866-127.046,127.028-127.053
			s127.045,56.866,127.053,127.028C982.041,945.346,982.041,945.354,982.041,945.362z"/>
		
			<radialGradient id="path4674_1_" cx="636.8071" cy="135.286" r="214.6429" gradientTransform="matrix(0.1432 -0.1435 -0.4268 -0.4259 725.5347 1013.8798)" gradientUnits="userSpaceOnUse">
			<stop  offset="0" style="stop-color:#F5F4F1"/>
			<stop  offset="1" style="stop-color:#F5F4F1;stop-opacity:0"/>
		</radialGradient>
		<path id="path4674" fill="url(#path4674_1_)" d="M982.041,945.362c0.006,70.162-56.866,127.046-127.029,127.053
			c-70.162,0.007-127.046-56.865-127.053-127.028c0-0.008,0-0.017,0-0.025c-0.007-70.163,56.866-127.046,127.028-127.053
			s127.045,56.866,127.053,127.028C982.041,945.346,982.041,945.354,982.041,945.362z"/>
		
			<radialGradient id="path4678_1_" cx="893.4297" cy="904.7592" r="214.6429" gradientTransform="matrix(0.3299 0.6645 0.6009 -0.2983 -96.948 667.6094)" gradientUnits="userSpaceOnUse">
			<stop  offset="0" style="stop-color:#0E191C"/>
			<stop  offset="1" style="stop-color:#0E191C;stop-opacity:0"/>
		</radialGradient>
		<path id="path4678" fill="url(#path4678_1_)" d="M982.041,945.362c0.006,70.162-56.866,127.046-127.029,127.053
			c-70.162,0.007-127.046-56.865-127.053-127.028c0-0.008,0-0.017,0-0.025c-0.007-70.163,56.866-127.046,127.028-127.053
			s127.045,56.866,127.053,127.028C982.041,945.346,982.041,945.354,982.041,945.362z"/>
		
			<radialGradient id="path4688_1_" cx="1478.3018" cy="230.431" r="214.5681" gradientTransform="matrix(0.3517 -0.0116 -0.0196 -0.5915 343.6308 1222.8862)" gradientUnits="userSpaceOnUse">
			<stop  offset="0" style="stop-color:#424A4B"/>
			<stop  offset="1" style="stop-color:#424A4B;stop-opacity:0"/>
		</radialGradient>
		<path id="path4688" fill="url(#path4688_1_)" d="M982.041,945.362c0.006,70.162-56.866,127.046-127.029,127.053
			c-70.162,0.007-127.046-56.865-127.053-127.028c0-0.008,0-0.017,0-0.025c-0.007-70.163,56.866-127.046,127.028-127.053
			s127.045,56.866,127.053,127.028C982.041,945.346,982.041,945.354,982.041,945.362z"/>
		
			<radialGradient id="path4706_1_" cx="1041.8926" cy="1168.1229" r="214.6429" gradientTransform="matrix(-0.1714 0.3664 0.6074 0.2841 439.5623 267.3232)" gradientUnits="userSpaceOnUse">
			<stop  offset="0" style="stop-color:#0A1314"/>
			<stop  offset="1" style="stop-color:#0A1314;stop-opacity:0"/>
		</radialGradient>
		<path id="path4706" fill="url(#path4706_1_)" d="M982.041,945.362c0.006,70.162-56.866,127.046-127.029,127.053
			c-70.162,0.007-127.046-56.865-127.053-127.028c0-0.008,0-0.017,0-0.025c-0.007-70.163,56.866-127.046,127.028-127.053
			s127.045,56.866,127.053,127.028C982.041,945.346,982.041,945.354,982.041,945.362z"/>
	</g>
	<g id="g4924">
		<path id="path3766" fill="#706062" d="M249.383,924.362c0.008,67.038-54.332,121.389-121.371,121.396
			C60.974,1045.765,6.623,991.425,6.617,924.386c0-0.008,0-0.016,0-0.023C6.61,857.324,60.95,802.974,127.988,802.967
			c67.038-0.006,121.389,54.333,121.395,121.372C249.383,924.347,249.383,924.354,249.383,924.362z"/>
		<path id="path4556" fill="#767676" d="M249.383,924.362c0.008,67.038-54.332,121.389-121.371,121.396
			C60.974,1045.765,6.623,991.425,6.617,924.386c0-0.008,0-0.016,0-0.023C6.61,857.324,60.95,802.974,127.988,802.967
			c67.038-0.006,121.389,54.333,121.395,121.372C249.383,924.347,249.383,924.354,249.383,924.362z"/>
		
			<radialGradient id="path4544_1_" cx="639.5732" cy="1242.1425" r="214.6422" gradientTransform="matrix(-0.0065 0.4072 0.5588 0.0089 -447.441 649.4363)" gradientUnits="userSpaceOnUse">
			<stop  offset="0" style="stop-color:#444544"/>
			<stop  offset="1" style="stop-color:#706062;stop-opacity:0"/>
		</radialGradient>
		<path id="path4544" fill="url(#path4544_1_)" d="M249.383,924.362c0.008,67.038-54.332,121.389-121.371,121.396
			C60.974,1045.765,6.623,991.425,6.617,924.386c0-0.008,0-0.016,0-0.023C6.61,857.324,60.95,802.974,127.988,802.967
			c67.038-0.006,121.389,54.333,121.395,121.372C249.383,924.347,249.383,924.354,249.383,924.362z"/>
		
			<radialGradient id="path4560_1_" cx="-230.0879" cy="2242.0459" r="214.643" gradientTransform="matrix(-0.0736 0.0829 0.1467 0.1302 -126.3585 724.4409)" gradientUnits="userSpaceOnUse">
			<stop  offset="0" style="stop-color:#CFCDC7"/>
			<stop  offset="1" style="stop-color:#CFCDC7;stop-opacity:0"/>
		</radialGradient>
		<path id="path4560" fill="url(#path4560_1_)" d="M249.383,924.362c0.008,67.038-54.332,121.389-121.371,121.396
			C60.974,1045.765,6.623,991.425,6.617,924.386c0-0.008,0-0.016,0-0.023C6.61,857.324,60.95,802.974,127.988,802.967
			c67.038-0.006,121.389,54.333,121.395,121.372C249.383,924.347,249.383,924.354,249.383,924.362z"/>
		
			<radialGradient id="path4570_1_" cx="-1664.2148" cy="1371.3182" r="214.6515" gradientTransform="matrix(-0.1583 0.0052 0.007 0.2138 -141.0549 762.3333)" gradientUnits="userSpaceOnUse">
			<stop  offset="0" style="stop-color:#E0D8D4"/>
			<stop  offset="0.6765" style="stop-color:#E0D8D4;stop-opacity:0.4549"/>
			<stop  offset="1" style="stop-color:#E0D8D4;stop-opacity:0"/>
		</radialGradient>
		<path id="path4570" fill="url(#path4570_1_)" d="M249.383,924.362c0.008,67.038-54.332,121.389-121.371,121.396
			C60.974,1045.765,6.623,991.425,6.617,924.386c0-0.008,0-0.016,0-0.023C6.61,857.324,60.95,802.974,127.988,802.967
			c67.038-0.006,121.389,54.333,121.395,121.372C249.383,924.347,249.383,924.354,249.383,924.362z"/>
		
			<radialGradient id="path4582_1_" cx="5202.6133" cy="859.1034" r="214.643" gradientTransform="matrix(0.0369 0.0445 0.2905 -0.2408 -405.173 969.9865)" gradientUnits="userSpaceOnUse">
			<stop  offset="0" style="stop-color:#B1ABA9"/>
			<stop  offset="1" style="stop-color:#B1ABA9;stop-opacity:0"/>
		</radialGradient>
		<path id="path4582" fill="url(#path4582_1_)" d="M249.383,924.362c0.008,67.038-54.332,121.389-121.371,121.396
			C60.974,1045.765,6.623,991.425,6.617,924.386c0-0.008,0-0.016,0-0.023C6.61,857.324,60.95,802.974,127.988,802.967
			c67.038-0.006,121.389,54.333,121.395,121.372C249.383,924.347,249.383,924.354,249.383,924.362z"/>
		
			<radialGradient id="path4592_1_" cx="283.457" cy="1072.3759" r="214.643" gradientTransform="matrix(0.0193 0.3913 0.7443 -0.0367 -791.6932 857.3311)" gradientUnits="userSpaceOnUse">
			<stop  offset="0" style="stop-color:#473E3E"/>
			<stop  offset="1" style="stop-color:#473E3E;stop-opacity:0"/>
		</radialGradient>
		<path id="path4592" fill="url(#path4592_1_)" d="M249.383,924.362c0.008,67.038-54.332,121.389-121.371,121.396
			C60.974,1045.765,6.623,991.425,6.617,924.386c0-0.008,0-0.016,0-0.023C6.61,857.324,60.95,802.974,127.988,802.967
			c67.038-0.006,121.389,54.333,121.395,121.372C249.383,924.347,249.383,924.354,249.383,924.362z"/>
		
			<radialGradient id="path4602_1_" cx="984.2793" cy="648.0116" r="214.6429" gradientTransform="matrix(0.2842 0.0163 0.0324 -0.5646 -168.2186 1160.6703)" gradientUnits="userSpaceOnUse">
			<stop  offset="0" style="stop-color:#B9B5B4"/>
			<stop  offset="1" style="stop-color:#9D9290;stop-opacity:0"/>
		</radialGradient>
		<path id="path4602" fill="url(#path4602_1_)" d="M249.383,924.362c0.008,67.038-54.332,121.389-121.371,121.396
			C60.974,1045.765,6.623,991.425,6.617,924.386c0-0.008,0-0.016,0-0.023C6.61,857.324,60.95,802.974,127.988,802.967
			c67.038-0.006,121.389,54.333,121.395,121.372C249.383,924.347,249.383,924.354,249.383,924.362z"/>
		
			<radialGradient id="path4630_1_" cx="-376.0801" cy="1409.3622" r="214.6431" gradientTransform="matrix(-0.0466 0.0652 0.4602 0.3287 -633.0778 419.637)" gradientUnits="userSpaceOnUse">
			<stop  offset="0" style="stop-color:#626463"/>
			<stop  offset="1" style="stop-color:#626463;stop-opacity:0"/>
		</radialGradient>
		<path id="path4630" fill="url(#path4630_1_)" d="M249.383,924.362c0.008,67.038-54.332,121.389-121.371,121.396
			C60.974,1045.765,6.623,991.425,6.617,924.386c0-0.008,0-0.016,0-0.023C6.61,857.324,60.95,802.974,127.988,802.967
			c67.038-0.006,121.389,54.333,121.395,121.372C249.383,924.347,249.383,924.354,249.383,924.362z"/>
	</g>
	<g id="g4879" transform="translate(-2.2167876e-7,-3.5831251e-6)">
		<g id="g4800">
			<path id="path3768" stroke="#000000" d="M237.893,924.362c0.006,60.692-49.189,109.898-109.882,109.904
				S18.113,985.076,18.107,924.384c0-0.007,0-0.014,0-0.021c-0.006-60.692,49.19-109.898,109.882-109.904
				s109.897,49.19,109.903,109.882C237.893,924.348,237.893,924.355,237.893,924.362z"/>
			<g id="g4785">
				
					<radialGradient id="path3874_1_" cx="142.7988" cy="837.6986" r="87.5486" gradientTransform="matrix(0.7494 0 0 -0.7494 20.9833 1552.1479)" gradientUnits="userSpaceOnUse">
					<stop  offset="0" style="stop-color:#EA1117"/>
					<stop  offset="0.3695" style="stop-color:#CD0D14"/>
					<stop  offset="1" style="stop-color:#C10914;stop-opacity:0"/>
				</radialGradient>
				<path id="path3874" opacity="0.3805" fill="url(#path3874_1_)" enable-background="new    " d="M193.047,924.362
					c0,35.925-29.122,65.047-65.047,65.047s-65.047-29.122-65.047-65.047S92.075,859.315,128,859.315
					S193.047,888.437,193.047,924.362z"/>
				
					<radialGradient id="path3772_1_" cx="53.3555" cy="897.0511" r="87.5469" gradientTransform="matrix(1 0 0 -1 74.6445 1821.4128)" gradientUnits="userSpaceOnUse">
					<stop  offset="0" style="stop-color:#EA1117"/>
					<stop  offset="0.3695" style="stop-color:#D3070E"/>
					<stop  offset="1" style="stop-color:#C10914;stop-opacity:0"/>
				</radialGradient>
				<path id="path3772" fill="url(#path3772_1_)" d="M214.797,924.362c0,47.938-38.859,86.797-86.797,86.797
					c-47.937,0-86.797-38.859-86.797-86.797c0-47.937,38.86-86.797,86.797-86.797C175.938,837.565,214.797,876.425,214.797,924.362z
					"/>
				
					<radialGradient id="path3860_1_" cx="42.875" cy="902.2372" r="44.125" gradientTransform="matrix(1 0 0 -1 85.125 1828.5994)" gradientUnits="userSpaceOnUse">
					<stop  offset="0" style="stop-color:#EA1117"/>
					<stop  offset="1" style="stop-color:#EA1117;stop-opacity:0"/>
				</radialGradient>
				
					<path id="path3860" fill="url(#path3860_1_)" stroke="#EF1D00" stroke-width="1.5" stroke-linecap="round" stroke-linejoin="round" stroke-opacity="0" d="
					M171.375,926.362c0,23.955-19.42,43.375-43.375,43.375c-23.956,0-43.375-19.42-43.375-43.375
					c0-23.956,19.419-43.375,43.375-43.375C151.955,882.987,171.375,902.407,171.375,926.362z"/>
				
					<radialGradient id="path3796_1_" cx="351.7227" cy="945.2704" r="20.1522" gradientTransform="matrix(1.2737 0 0 -1.2737 -319.9941 2128.3647)" gradientUnits="userSpaceOnUse">
					<stop  offset="0" style="stop-color:#F8EE46"/>
					<stop  offset="1" style="stop-color:#D3321C;stop-opacity:0"/>
				</radialGradient>
				<path id="path3796" fill="url(#path3796_1_)" d="M161.943,924.362c0.008,18.746-15.182,33.949-33.929,33.958
					c-18.746,0.009-33.95-15.183-33.958-33.929c0-0.01,0-0.02,0-0.029c-0.008-18.747,15.182-33.95,33.929-33.958
					c18.746-0.008,33.95,15.182,33.958,33.929C161.943,924.343,161.943,924.352,161.943,924.362z"/>
				<path id="path3818" fill="#F4F846" d="M131.535,924.362c0,1.953-1.582,3.535-3.535,3.535c-1.953,0-3.536-1.582-3.536-3.535
					c0-1.953,1.583-3.536,3.536-3.536C129.953,920.827,131.535,922.41,131.535,924.362z"/>
			</g>
		</g>
		<g id="g4859">
			<g id="g4393" filter="url(#filter4426)">
				<path id="path4007_1_" fill="#C9C9BF" d="M98.203,833.523l2.121,8.309c15.361-5.88,45.98-3.833,61.872,3.712l1.592-8.309
					C143.785,828.554,112.399,829.164,98.203,833.523z"/>
				
					<linearGradient id="path4009_2_" gradientUnits="userSpaceOnUse" x1="-23.437" y1="172.8905" x2="-19.687" y2="177.8905" gradientTransform="matrix(1 0 0 -1 84 1027.3621)">
					<stop  offset="0" style="stop-color:#BEBBB6"/>
					<stop  offset="1" style="stop-color:#BEBBB6;stop-opacity:0"/>
				</linearGradient>
				<path id="path4009_1_" fill="url(#path4009_2_)" d="M58.604,849.256c-13.041,17.05-17.381,27.717-19.092,37.3
					c3.263-1.562,4.807-4.567,6.341-7.261c6.117-9.486,12.364-19.077,21.059-25.443L58.604,849.256z"/>
				
					<linearGradient id="path4011_2_" gradientUnits="userSpaceOnUse" x1="-18.3589" y1="151.2045" x2="5.1411" y2="149.7045" gradientTransform="matrix(1 0 0 -1 84 1027.3621)">
					<stop  offset="0" style="stop-color:#FFFFFF"/>
					<stop  offset="1" style="stop-color:#FFFFFF;stop-opacity:0"/>
				</linearGradient>
				<path id="path4011_1_" opacity="0.5377" fill="url(#path4011_2_)" enable-background="new    " d="M58.604,877.717l11.314-8.309
					l9.546,9.369l-10.784,4.596L58.604,877.717z"/>
				<path id="path4013_1_" opacity="0.5377" fill="#FFFFFF" enable-background="new    " d="M111.107,853.499
					c9.392-1.298,19.13-0.87,28.991,0.177c0.569,2.023,0.782,4.402,0.884,6.894c-9.252-0.687-18.502-1.334-27.754-0.177
					C112.804,858.377,111.999,855.982,111.107,853.499z"/>
				<path id="path4015_1_" fill="#816461" d="M178.812,871.177l-5.127,6.541c2.701,0.955,6.198,2.109,10.784,3.536
					c1.186-1.422,2.821-3.293,4.95-5.657C186.482,873.923,183.156,872.38,178.812,871.177L178.812,871.177z"/>
				<path id="path4017_1_" fill="#F15E4F" d="M91.662,896.986l5.126-3.889l2.298,3.536l-3.889,3.182L91.662,896.986z"/>
				<path id="path4019_1_" fill="#EC4E3E" d="M118.885,882.313c5.813-0.941,11.075-0.225,16.441,0.177l-0.354,3.182
					c-5.245-0.162-10.489-0.554-15.734,0.177L118.885,882.313z"/>
				<path id="path4021_1_" fill="#E66044" d="M119.769,895.218c7.327-1.535,13.821-1.005,19.269,2.122l1.414-2.829
					c-7.722-3.491-16.363-3.266-21.39-1.591L119.769,895.218z"/>
				
					<linearGradient id="path4023_2_" gradientUnits="userSpaceOnUse" x1="75.0479" y1="131.2313" x2="70.982" y2="131.7617" gradientTransform="matrix(1 0 0 -1 84 1027.3621)">
					<stop  offset="0" style="stop-color:#EA3231"/>
					<stop  offset="1" style="stop-color:#EA3231;stop-opacity:0"/>
				</linearGradient>
				<path id="path4023_1_" fill="url(#path4023_2_)" d="M160.251,898.754l2.122-3.005l-4.95-2.298l-2.651,2.298L160.251,898.754z"/>
				<path id="path4025_1_" fill="#F74639" d="M155.301,906.709c-2.275-3.534-2.727-5.375-4.772-7.071l-1.591,1.061
					c2.47,2.243,4.483,4.828,6.01,7.778L155.301,906.709z"/>
				<path id="path4027_1_" fill="#EF4D2B" d="M132.497,901.405c-2.888-0.757-5.774-0.589-8.662-0.177v-1.944
					c2.703-0.816,5.548-0.774,8.485-0.177L132.497,901.405z"/>
				<path id="path4029_1_" fill="#EB5241" d="M108.632,900.521c-3.033,2.759-5.039,5.903-6.187,9.369l-1.061-1.061
					c1.177-3.765,2.998-7.354,6.011-10.43L108.632,900.521z"/>
				<path id="path4031_1_" fill="#F7432E" d="M110.577,908.476l1.061-2.475l-2.652-1.061l-1.237,2.475L110.577,908.476z"/>
				<path id="path4033_1_" fill="#F7432E" d="M146.992,908.3l1.238-1.945l-2.121-1.237l-1.768,1.414L146.992,908.3z"/>
				
					<linearGradient id="path4035_2_" gradientUnits="userSpaceOnUse" x1="121.1118" y1="162.9999" x2="112.1109" y2="156.4992" gradientTransform="matrix(1 0 0 -1 84 1027.3621)">
					<stop  offset="0" style="stop-color:#8F908A"/>
					<stop  offset="1" style="stop-color:#8F908A;stop-opacity:0"/>
				</linearGradient>
				<path id="path4035_1_" fill="url(#path4035_2_)" d="M191.57,855.65l4.773-4.065c8.446,4.491,14.501,13.367,20.152,22.98
					l-2.475,2.475C206.713,869.559,199.344,862.201,191.57,855.65z"/>
			</g>
			<g id="path4462" opacity="0.9308" filter="url(#filter4487)" enable-background="new    ">
				<path fill="#35373C" d="M128,822.612c-12.155,0-23.819,2.153-34.625,6.062l2.344,0.156c10.146-3.393,20.994-4.219,32.281-4.219
					c15.022,0,29.29,2.25,42.125,8.094l2.938,0.406C159.479,826.391,144.182,822.612,128,822.612z"/>
			</g>
			<g id="path4469" opacity="0.3931" filter="url(#filter4511)" enable-background="new    ">
				<path fill="#BAB7B2" d="M49.719,859.362c-3.711,4.464-7.056,9.251-9.969,14.312l0.188,0.031c1.243-2.051,3.554-4.056,4.932-6.01
					c1.73-2.455,3.566-5.829,5.506-8.115L49.719,859.362z"/>
			</g>
		</g>
	</g>
</g>
</svg>
